<mxfile host="app.diagrams.net" agent="Mozilla/5.0 (Macintosh; Intel Mac OS X 10_15_7) AppleWebKit/537.36 (KHTML, like Gecko) Chrome/131.0.0.0 Safari/537.36 Edg/131.0.0.0" version="27.1.5">
  <diagram name="第 1 页" id="vCstujBlFwDj5-IRAXL8">
    <mxGraphModel dx="936" dy="742" grid="1" gridSize="10" guides="1" tooltips="1" connect="1" arrows="1" fold="1" page="1" pageScale="1" pageWidth="827" pageHeight="1169" math="0" shadow="0">
      <root>
        <mxCell id="0" />
        <mxCell id="1" parent="0" />
        <mxCell id="kBfozF5rs_TPLlJqGUb--8" style="edgeStyle=orthogonalEdgeStyle;rounded=0;orthogonalLoop=1;jettySize=auto;html=1;" edge="1" parent="1" source="kBfozF5rs_TPLlJqGUb--1" target="kBfozF5rs_TPLlJqGUb--5">
          <mxGeometry relative="1" as="geometry" />
        </mxCell>
        <mxCell id="kBfozF5rs_TPLlJqGUb--1" value="商品" style="rounded=1;whiteSpace=wrap;html=1;" vertex="1" parent="1">
          <mxGeometry x="80" y="110" width="90" height="30" as="geometry" />
        </mxCell>
        <mxCell id="kBfozF5rs_TPLlJqGUb--9" style="edgeStyle=orthogonalEdgeStyle;rounded=0;orthogonalLoop=1;jettySize=auto;html=1;entryX=0.5;entryY=0;entryDx=0;entryDy=0;" edge="1" parent="1" source="kBfozF5rs_TPLlJqGUb--2" target="kBfozF5rs_TPLlJqGUb--5">
          <mxGeometry relative="1" as="geometry" />
        </mxCell>
        <mxCell id="kBfozF5rs_TPLlJqGUb--2" value="课程" style="rounded=1;whiteSpace=wrap;html=1;" vertex="1" parent="1">
          <mxGeometry x="200" y="110" width="90" height="30" as="geometry" />
        </mxCell>
        <mxCell id="kBfozF5rs_TPLlJqGUb--12" style="edgeStyle=orthogonalEdgeStyle;rounded=0;orthogonalLoop=1;jettySize=auto;html=1;entryX=0.5;entryY=0;entryDx=0;entryDy=0;" edge="1" parent="1" source="kBfozF5rs_TPLlJqGUb--3" target="kBfozF5rs_TPLlJqGUb--10">
          <mxGeometry relative="1" as="geometry" />
        </mxCell>
        <mxCell id="kBfozF5rs_TPLlJqGUb--3" value="绘本" style="rounded=1;whiteSpace=wrap;html=1;" vertex="1" parent="1">
          <mxGeometry x="324" y="110" width="90" height="30" as="geometry" />
        </mxCell>
        <mxCell id="kBfozF5rs_TPLlJqGUb--13" style="edgeStyle=orthogonalEdgeStyle;rounded=0;orthogonalLoop=1;jettySize=auto;html=1;entryX=0.5;entryY=0;entryDx=0;entryDy=0;" edge="1" parent="1" source="kBfozF5rs_TPLlJqGUb--4" target="kBfozF5rs_TPLlJqGUb--10">
          <mxGeometry relative="1" as="geometry">
            <Array as="points">
              <mxPoint x="495" y="210" />
              <mxPoint x="305" y="210" />
            </Array>
          </mxGeometry>
        </mxCell>
        <mxCell id="kBfozF5rs_TPLlJqGUb--4" value="盒子" style="rounded=1;whiteSpace=wrap;html=1;" vertex="1" parent="1">
          <mxGeometry x="450" y="110" width="90" height="30" as="geometry" />
        </mxCell>
        <mxCell id="kBfozF5rs_TPLlJqGUb--11" style="edgeStyle=orthogonalEdgeStyle;rounded=0;orthogonalLoop=1;jettySize=auto;html=1;entryX=0.5;entryY=0;entryDx=0;entryDy=0;exitX=0.5;exitY=1;exitDx=0;exitDy=0;" edge="1" parent="1" source="kBfozF5rs_TPLlJqGUb--5" target="kBfozF5rs_TPLlJqGUb--10">
          <mxGeometry relative="1" as="geometry" />
        </mxCell>
        <mxCell id="kBfozF5rs_TPLlJqGUb--5" value="课节" style="rounded=1;whiteSpace=wrap;html=1;" vertex="1" parent="1">
          <mxGeometry x="140" y="210" width="90" height="30" as="geometry" />
        </mxCell>
        <mxCell id="kBfozF5rs_TPLlJqGUb--16" style="edgeStyle=orthogonalEdgeStyle;rounded=0;orthogonalLoop=1;jettySize=auto;html=1;" edge="1" parent="1" source="kBfozF5rs_TPLlJqGUb--10" target="kBfozF5rs_TPLlJqGUb--14">
          <mxGeometry relative="1" as="geometry" />
        </mxCell>
        <mxCell id="kBfozF5rs_TPLlJqGUb--10" value="分组" style="rounded=1;whiteSpace=wrap;html=1;" vertex="1" parent="1">
          <mxGeometry x="260" y="290" width="90" height="30" as="geometry" />
        </mxCell>
        <mxCell id="kBfozF5rs_TPLlJqGUb--17" style="edgeStyle=orthogonalEdgeStyle;rounded=0;orthogonalLoop=1;jettySize=auto;html=1;entryX=0.5;entryY=0;entryDx=0;entryDy=0;" edge="1" parent="1" source="kBfozF5rs_TPLlJqGUb--14" target="kBfozF5rs_TPLlJqGUb--15">
          <mxGeometry relative="1" as="geometry" />
        </mxCell>
        <mxCell id="kBfozF5rs_TPLlJqGUb--14" value="资源" style="rounded=1;whiteSpace=wrap;html=1;" vertex="1" parent="1">
          <mxGeometry x="260" y="360" width="90" height="30" as="geometry" />
        </mxCell>
        <mxCell id="kBfozF5rs_TPLlJqGUb--15" value="提交" style="rounded=1;whiteSpace=wrap;html=1;" vertex="1" parent="1">
          <mxGeometry x="260" y="440" width="90" height="30" as="geometry" />
        </mxCell>
      </root>
    </mxGraphModel>
  </diagram>
</mxfile>
